<?xml version="1.0" standalone="no"?><!DOCTYPE svg PUBLIC "-//W3C//DTD SVG 1.1//EN" "http://www.w3.org/Graphics/SVG/1.1/DTD/svg11.dtd"><svg t="1742610543465" class="icon" viewBox="0 0 1024 1024" version="1.1" xmlns="http://www.w3.org/2000/svg" p-id="5297" xmlns:xlink="http://www.w3.org/1999/xlink" width="128" height="128"><path d="M860.477 635.675c-30.705-21.934-70.172-35.096-109.66-35.096-109.659 0-197.384 87.726-197.384 197.385 0 39.477 13.162 78.954 35.096 109.66H163.054c-26.325 0-43.868-17.554-43.868-43.868V118.084c0-26.325 17.543-43.868 43.868-43.868H821c26.315 0 43.858 17.543 43.858 43.868v517.581h-4.38v0.01zM706.96 293.535c13.163 0 21.934-8.772 21.934-21.934 0-13.163-8.771-21.934-21.934-21.934H268.322c-13.152 0-21.934 8.771-21.934 21.934 0 13.152 8.772 21.934 21.934 21.934H706.96z m0 219.319c13.163 0 21.934-8.772 21.934-21.934 0-13.163-8.771-21.934-21.934-21.934H268.322c-13.152 0-21.934 8.771-21.934 21.934 0 13.152 8.772 21.934 21.934 21.934H706.96z m-443.018 175.46c-8.772 0-17.543 8.772-17.543 21.935 0 13.152 8.771 21.934 17.543 21.934h232.481c8.772 0 17.543-8.772 17.543-21.934 0-13.163-8.771-21.934-17.543-21.934H263.942z"  p-id="5298"></path><path d="M772.752 776.04V710.25c0-13.163-8.772-21.934-21.934-21.934-13.163 0-21.934 8.771-21.934 21.934v87.725c0 4.391 4.39 13.163 4.39 17.543 0 4.391 8.772 4.391 17.544 4.391h87.725c13.163 0 21.934-8.771 21.934-21.934 0-13.162-8.771-21.934-21.934-21.934h-65.791z m-21.934 175.441c-83.335 0-153.517-70.182-153.517-153.517s70.182-153.517 153.517-153.517c83.334 0 153.517 70.182 153.517 153.517s-70.172 153.517-153.517 153.517z"  p-id="5299"></path></svg>
